<?xml version="1.0" encoding="UTF-8"?>
<svg width="320px" height="320px" viewBox="0 0 320 320" version="1.1" xmlns="http://www.w3.org/2000/svg" xmlns:xlink="http://www.w3.org/1999/xlink">
    <!-- Generator: Sketch 48.2 (47327) - http://www.bohemiancoding.com/sketch -->
    <title>mask-icon</title>
    <desc>Created with Sketch.</desc>
    <defs></defs>
    <g id="Page-1" stroke="none" stroke-width="1" fill="none" fill-rule="evenodd">
        <g id="mask-icon" fill="#BD10E0">
            <path d="M106.30783,1 L106.30783,160.173211 L1.99601879,160.173211 C1.44373404,160.173211 0.996018788,160.620926 0.996018788,161.173211 C0.996018788,161.438316 1.1012874,161.692572 1.28868475,161.88009 L159.014603,319.708046 C159.405001,320.098695 160.038166,320.098899 160.428816,319.7085 C160.428917,319.708399 160.429018,319.708298 160.429119,319.708197 L318.222658,161.880242 C318.613141,161.489676 318.613073,160.856511 318.222507,160.466028 C318.034976,160.278538 317.780655,160.173211 317.515476,160.173211 L213.135741,160.173211 L213.135741,1 C213.135741,0.44771525 212.688025,-1.01453063e-16 212.135741,0 L107.30783,0 C106.755545,7.9498914e-15 106.30783,0.44771525 106.30783,1 Z" id="Path"></path>
        </g>
    </g>
</svg>